HIERARCHY
ROOT Hips
{
    OFFSET 0.0 0.0 0.0
    CHANNELS 6 Xposition Yposition Zposition Zrotation Xrotation Yrotation
    JOINT Spine
    {
        OFFSET 0.0 5.0 0.0
        CHANNELS 3 Zrotation Xrotation Yrotation
        JOINT Chest
        {
            OFFSET 0.0 5.0 0.0
            CHANNELS 3 Zrotation Xrotation Yrotation
            JOINT Neck
            {
                OFFSET 0.0 8.0 0.0
                CHANNELS 3 Zrotation Xrotation Yrotation
                JOINT Head
                {
                    OFFSET 0.0 5.0 0.0
                    CHANNELS 3 Zrotation Xrotation Yrotation
                    End Site
                    {
                        OFFSET 0.0 3.0 0.0
                    }
                }
            }
            JOINT LeftShoulder
            {
                OFFSET -5.0 0.0 0.0
                CHANNELS 3 Zrotation Xrotation Yrotation
                JOINT LeftArm
                {
                    OFFSET 0.0 -10.0 0.0
                    CHANNELS 3 Zrotation Xrotation Yrotation
                    JOINT LeftForeArm
                    {
                        OFFSET 0.0 -10.0 0.0
                        CHANNELS 3 Zrotation Xrotation Yrotation
                        End Site
                        {
                            OFFSET 0.0 -3.0 0.0
                        }
                    }
                }
            }
        }
    }
}

MOTION
Frames: 22
Frame Time: 0.033333
970.000000 442.938926 123.802227 0.000000 0.000000 0.000000 0.000000 0.000000 0.000000 29.678605 4.436466 0.000000 180.000000 13.333717 0.000000 29.744881 -10.219054 -0.000000 150.255119 -1.358521 30.000000 19.983107 -0.158773 0.000000 18.000000 0.110811 0.000000
1354.522934 467.411410 116.571024 0.000000 0.000000 0.000000 0.000000 0.000000 0.000000 150.622570 8.588616 4.973798 -29.377430 -9.908489 4.973798 140.176400 0.118543 3.759997 -12.221629 3.035293 29.763441 132.794256 -6.200653 -3.759997 -2.626015 -0.084242 0.313953
969.997807 442.887864 124.046894 0.000000 0.000000 0.000000 0.000000 0.000000 0.000000 31.061399 -0.406058 9.635073 180.000000 -6.442416 9.635073 30.285790 -6.144029 7.460697 149.714210 -8.606097 29.057495 19.151579 -3.310091 -7.460697 18.000000 0.419491 0.626666
1246.736984 514.278152 116.643541 0.000000 0.000000 0.000000 0.000000 0.000000 0.000000 143.557092 -5.393060 13.690942 -36.442908 9.408742 13.690942 133.761037 -4.751051 11.043737 -156.950665 -5.621888 27.893295 0.000000 0.000000 0.000000 1.928484 0.433998 0.936907
1245.221100 458.637464 121.329880 0.000000 0.000000 0.000000 0.000000 0.000000 0.000000 160.701064 2.880957 16.886559 -19.298936 1.765534 16.886559 140.193827 1.056284 14.452610 -157.554825 -5.439621 26.289200 29.500467 5.593077 -14.452610 -15.049953 -0.559308 1.243449
1257.365570 418.514181 113.378077 0.000000 0.000000 0.000000 0.000000 0.000000 0.000000 -143.710676 0.089665 19.021130 36.289324 8.741149 19.021130 163.220413 -3.664550 17.633558 11.688054 3.573709 24.270510 152.038385 -0.347135 -17.633558 -2.339948 -0.210412 1.545085
1275.099564 408.163741 95.466575 0.000000 0.000000 0.000000 0.000000 0.000000 0.000000 -132.929531 -18.482968 19.960535 47.070469 8.637089 19.960535 173.491912 0.081941 20.536413 -160.709681 -4.140312 21.869059 33.138793 5.341677 -20.536413 -14.686121 -0.534168 1.840623
1290.611115 384.880857 92.627455 0.000000 0.000000 0.000000 0.000000 0.000000 0.000000 -132.705235 0.243932 19.645745 47.294765 -9.118222 19.645745 -173.778854 6.952286 23.115397 20.496835 2.499786 19.122720 -161.220290 -4.202000 -23.115397 1.723235 0.342632 2.128896
1302.817154 380.305352 102.279855 0.000000 0.000000 0.000000 0.000000 0.000000 0.000000 -131.493915 2.025558 18.096541 48.506085 -9.222842 18.096541 -165.393697 1.531867 25.329838 23.154815 -4.017995 16.074804 -178.200316 0.291247 -25.329838 0.138141 0.001845 2.408768
1304.997711 379.563582 70.722766 0.000000 0.000000 0.000000 0.000000 0.000000 0.000000 -126.727972 -1.990247 15.410265 53.272028 5.176237 15.410265 -160.219593 0.495990 27.144812 28.448880 0.816112 12.773379 -174.368770 1.167702 -27.144812 0.079526 -0.153502 2.679134
1311.668472 386.890390 85.905868 0.000000 0.000000 0.000000 0.000000 0.000000 0.000000 -122.308728 2.973314 11.755705 57.691272 11.045206 11.755705 -158.801130 -3.078641 28.531695 150.942637 -2.279989 9.270510 -154.878332 -3.866128 -28.531695 2.695409 0.512366 2.938926
1305.131836 395.180186 69.002072 0.000000 0.000000 0.000000 0.000000 0.000000 0.000000 -125.112810 -10.476377 7.362491 54.887190 8.337309 7.362491 -146.487292 -1.113457 29.468618 -175.167369 3.209292 5.621439 -159.224034 -4.559487 -29.468618 1.782042 0.451376 3.187120
1296.320457 392.734526 69.721569 0.000000 0.000000 0.000000 0.000000 0.000000 0.000000 -131.035750 2.546969 2.506665 48.964250 8.066807 2.506665 -128.969563 -2.198021 29.940802 38.856147 3.747149 1.883716 -134.776850 -1.343706 -29.940802 3.458429 0.118138 3.422736
1306.963577 386.612041 87.110026 0.000000 0.000000 0.000000 0.000000 0.000000 0.000000 -124.469622 3.757647 -2.506665 55.530378 -3.470249 -2.506665 -109.994856 5.119494 29.940802 37.691309 4.163076 -1.883716 -118.274788 -2.504312 -29.940802 5.098336 0.225421 3.644843
969.892723 442.572198 59.626331 0.000000 0.000000 0.000000 0.000000 0.000000 0.000000 41.287575 -21.352123 -7.362491 180.000000 -6.383651 -7.362491 30.974696 12.238498 29.468618 149.025304 17.226729 -5.621439 15.072869 -5.633121 -29.468618 18.000000 -0.086258 3.852566
969.876883 442.545207 69.068579 0.000000 0.000000 0.000000 0.000000 0.000000 0.000000 42.241956 -33.732629 -11.755705 180.000000 21.552321 -11.755705 30.826133 -18.158972 28.531695 149.173867 21.528495 -9.270510 14.823070 -8.700313 -28.531695 18.000000 -0.184364 4.045085
969.859960 442.518116 70.776589 0.000000 0.000000 0.000000 0.000000 0.000000 0.000000 43.199779 -14.361562 -15.410265 180.000000 5.370547 -15.410265 30.649504 -8.979001 27.144812 149.350496 5.411065 -12.773379 14.587557 -2.616128 -27.144812 18.000000 0.306148 4.221640
969.841956 442.490926 70.053273 0.000000 0.000000 0.000000 0.000000 0.000000 0.000000 44.157210 -21.611071 -18.096541 180.000000 9.254736 -18.096541 30.446417 5.262860 25.329838 149.553583 10.726514 -16.074804 14.366154 -6.443259 -25.329838 18.000000 0.850821 4.381533
969.822873 442.463637 57.958184 0.000000 0.000000 0.000000 0.000000 0.000000 0.000000 45.110117 50.202141 -19.645745 180.000000 -0.730414 -19.645745 30.218633 -13.427798 23.115397 149.781367 -6.050703 -19.122720 14.158653 0.097028 -23.115397 18.000000 -0.301894 4.524135
969.802712 442.436251 50.034369 0.000000 0.000000 0.000000 0.000000 0.000000 0.000000 46.054109 -4.148759 -19.960535 180.000000 13.325866 -19.960535 29.968037 -8.690855 20.536413 150.031963 6.612489 -21.869059 13.964823 3.010905 -20.536413 18.000000 -0.131135 4.648882
1187.040939 541.658249 61.267459 0.000000 0.000000 0.000000 0.000000 0.000000 0.000000 82.806623 28.376551 -19.021130 -97.193377 -32.303613 -19.021130 45.395981 9.910580 17.633558 -156.144455 -2.943779 -24.270510 0.000000 0.000000 0.000000 0.000000 0.000000 0.000000
1182.242889 522.024286 64.129486 0.000000 0.000000 0.000000 0.000000 0.000000 0.000000 -105.721938 13.171796 -16.886559 74.278062 -18.628188 -16.886559 -155.708006 -2.407707 14.452610 -157.302521 -3.162945 -26.289200 0.000000 0.000000 0.000000 2.684983 0.229161 4.842916
